<?xml version="1.0" encoding="utf-8"?>

<!DOCTYPE svg PUBLIC "-//W3C//DTD SVG 1.1//EN" "http://www.w3.org/Graphics/SVG/1.1/DTD/svg11.dtd">
<!-- Uploaded to: SVG Repo, www.svgrepo.com, Generator: SVG Repo Mixer Tools -->
<svg fill="#000000" version="1.1" id="Layer_1" xmlns="http://www.w3.org/2000/svg" xmlns:xlink="http://www.w3.org/1999/xlink" 
	 width="800px" height="800px" viewBox="0 0 100 100" enable-background="new 0 0 100 100" xml:space="preserve">
<g>
	<path d="M27.6,73.783c6.914,6.914,16.104,10.721,25.877,10.721c9.768,0,18.951-3.804,25.857-10.709
		c1.804-1.804,3.42-3.793,4.802-5.915c0.419-0.643,0.433-1.468,0.036-2.125c-0.395-0.657-1.132-1.036-1.896-0.958l-0.771,0.071
		c-0.076,0.007-0.152,0.019-0.229,0.034c-0.036,0.008-3.736,0.771-8.975,0.771c-7.912,0-19.049-1.704-27.168-9.822
		c-13.581-13.58-8.734-36.232-8.684-36.46c0.177-0.795-0.146-1.62-0.818-2.082c-0.67-0.462-1.555-0.471-2.236-0.022
		c-2.049,1.354-3.993,2.945-5.777,4.729c-6.912,6.911-10.722,16.103-10.727,25.881C16.885,57.679,20.688,66.872,27.6,73.783z
		 M30.445,24.844c0.439-0.439,0.89-0.865,1.349-1.277c-0.788,8.053-0.631,23.972,10.51,35.112
		c9.087,9.087,21.328,10.994,29.996,10.994c2.186,0,4.115-0.121,5.672-0.272c-0.471,0.537-0.961,1.06-1.467,1.565
		c-6.151,6.151-14.33,9.538-23.029,9.538c-8.705,0-16.891-3.391-23.049-9.549c-6.155-6.155-9.542-14.344-9.538-23.057
		C20.895,39.188,24.289,31,30.445,24.844z"/>
</g>
</svg>